<?xml version="1.0" encoding="UTF-8"?>
<svg xmlns="http://www.w3.org/2000/svg" xmlns:xlink="http://www.w3.org/1999/xlink" width="150px" height="150px" viewBox="0 0 150 150" version="1.1">
<g id="surface1">
<path style=" stroke:none;fill-rule:nonzero;fill:rgb(0%,0%,0%);fill-opacity:1;" d="M 61.699219 0.195312 C 61.441406 0.308594 59.964844 0.761719 58.417969 1.226562 C 55.265625 2.171875 54.386719 2.503906 53.027344 3.214844 C 50.777344 4.394531 49.523438 5.890625 48.867188 8.183594 L 48.609375 9.066406 L 47.542969 9.78125 C 46.945312 10.160156 45.597656 11.082031 44.53125 11.816406 C 43.464844 12.554688 42.550781 13.191406 42.480469 13.226562 C 42.421875 13.265625 42.492188 13.140625 42.632812 12.945312 C 43.675781 11.535156 44.636719 9.667969 45.234375 7.914062 C 45.609375 6.773438 46.898438 1.71875 46.804688 1.71875 C 46.5 1.71875 42.527344 4.378906 41.074219 5.570312 C 40.007812 6.429688 38.167969 8.382812 37.40625 9.4375 C 36.539062 10.652344 35.707031 12.332031 35.378906 13.570312 C 35.027344 14.898438 35.027344 16.566406 35.390625 17.671875 L 35.648438 18.46875 L 35.25 18.824219 C 33.28125 20.613281 31.828125 22.050781 30.527344 23.472656 L 28.96875 25.179688 L 29.542969 24.015625 C 30.234375 22.601562 30.726562 21.082031 31.078125 19.242188 C 31.289062 18.101562 31.335938 17.425781 31.335938 15.398438 C 31.347656 13.15625 31.125 9.71875 30.949219 9.363281 C 30.902344 9.277344 30.445312 9.769531 29.824219 10.589844 C 24.609375 17.363281 23.625 19.265625 23.191406 23.375 C 22.910156 26.160156 23.542969 29.917969 24.316406 30.039062 C 24.46875 30.0625 24.867188 29.792969 25.40625 29.328125 L 26.261719 28.566406 L 25.21875 30.027344 C 23.507812 32.394531 21.1875 36.164062 20.320312 37.941406 C 20.15625 38.285156 20.003906 38.53125 19.96875 38.507812 C 19.945312 38.46875 19.980469 38.148438 20.039062 37.78125 C 20.273438 36.519531 20.367188 34.46875 20.273438 32.847656 C 20.132812 30.480469 19.921875 29.597656 18.199219 23.929688 C 17.835938 22.75 17.507812 21.730469 17.460938 21.683594 C 17.367188 21.574219 17.203125 22.101562 15.820312 26.628906 C 14.425781 31.230469 13.957031 33.191406 13.710938 35.585938 C 13.394531 38.542969 13.933594 40.824219 15.691406 44.089844 L 16.464844 45.539062 L 16.804688 45.132812 C 16.992188 44.910156 17.109375 44.8125 17.074219 44.910156 C 17.039062 45.011719 16.804688 45.648438 16.546875 46.335938 C 15.925781 47.929688 15.257812 49.980469 14.707031 51.90625 C 14.472656 52.753906 14.25 53.527344 14.214844 53.625 C 14.179688 53.722656 14.027344 53.257812 13.886719 52.582031 C 13.242188 49.683594 11.988281 46.59375 10.5 44.25 C 9.902344 43.292969 9.046875 41.894531 8.613281 41.144531 C 7.828125 39.769531 7.453125 39.277344 7.3125 39.425781 C 7.265625 39.476562 7.183594 40.519531 7.136719 41.746094 C 7.078125 42.984375 6.984375 44.765625 6.914062 45.710938 C 6.75 48.210938 6.773438 52.238281 6.972656 53.746094 C 7.511719 57.929688 8.730469 60.335938 11.15625 61.980469 C 11.554688 62.25 12 62.496094 12.152344 62.53125 C 12.46875 62.617188 12.46875 62.519531 12.246094 64.644531 C 12.035156 66.691406 11.835938 69.980469 11.835938 71.476562 L 11.835938 72.582031 L 11.179688 71.304688 C 9.914062 68.816406 7.804688 65.527344 6.386719 63.847656 C 5.648438 62.972656 1.734375 59.636719 1.441406 59.636719 C 1.3125 59.636719 1.277344 59.722656 1.324219 59.90625 C 1.476562 60.65625 2.144531 64.226562 2.472656 66.078125 C 3.832031 73.820312 5.882812 77.847656 9.84375 80.570312 C 10.6875 81.148438 12.152344 81.996094 12.386719 82.03125 C 12.398438 82.03125 12.515625 82.78125 12.65625 83.6875 C 12.972656 85.773438 13.5 88.425781 13.933594 90.203125 C 14.121094 90.953125 14.238281 91.515625 14.191406 91.46875 C 14.144531 91.40625 13.863281 91.027344 13.570312 90.621094 C 12.257812 88.804688 11.25 87.984375 4.394531 83.171875 C 2.636719 81.945312 0.0585938 80.363281 0.0234375 80.484375 C -0.0234375 80.632812 4.335938 89.859375 5.332031 91.726562 C 6.550781 93.984375 7.207031 94.914062 8.613281 96.386719 C 10.019531 97.871094 11.660156 99.101562 13.148438 99.8125 C 14.578125 100.488281 16.429688 101.113281 17.027344 101.113281 C 17.414062 101.113281 17.578125 101.160156 17.578125 101.273438 C 17.578125 101.726562 20.976562 108.476562 22.089844 110.253906 C 22.277344 110.550781 22.171875 110.488281 21.503906 109.921875 C 20.261719 108.878906 18.785156 107.949219 16.582031 106.820312 C 14.203125 105.605469 12.914062 105.125 10.089844 104.363281 C 8.929688 104.058594 7.40625 103.589844 6.714844 103.332031 C 4.746094 102.597656 4.710938 102.730469 6.363281 104.820312 C 7.019531 105.640625 8.109375 107.078125 8.777344 107.984375 C 11.367188 111.507812 15.808594 115.628906 18.316406 116.820312 C 19.359375 117.308594 21.492188 117.972656 22.898438 118.230469 C 23.800781 118.402344 24.375 118.425781 25.5 118.367188 C 26.296875 118.328125 27.070312 118.242188 27.222656 118.179688 C 27.480469 118.070312 27.597656 118.167969 28.441406 119.1875 C 30.480469 121.640625 33.445312 124.671875 35.742188 126.660156 C 36.175781 127.027344 35.847656 126.894531 33.9375 125.875 C 31.335938 124.5 31.089844 124.425781 27.421875 123.886719 C 21.445312 123.003906 14.648438 122.441406 14.648438 122.820312 C 14.648438 122.992188 15.351562 123.570312 17.871094 125.46875 C 22.230469 128.769531 24.152344 129.984375 26.601562 130.96875 C 30.035156 132.355469 31.816406 132.773438 34.394531 132.773438 C 36.726562 132.773438 38.355469 132.441406 40.289062 131.582031 C 41.25 131.152344 41.25 131.140625 41.050781 130.894531 C 40.933594 130.757812 41.179688 130.882812 41.601562 131.175781 C 43.828125 132.746094 48.914062 135.605469 51.234375 136.574219 C 51.609375 136.734375 51.890625 136.882812 51.878906 136.90625 C 51.855469 136.929688 51.28125 136.84375 50.613281 136.734375 C 49.710938 136.585938 48.667969 136.527344 46.640625 136.527344 C 43.078125 136.527344 42.714844 136.574219 35.390625 138.035156 C 34.066406 138.292969 32.132812 138.675781 31.089844 138.871094 C 30.035156 139.054688 29.191406 139.261719 29.214844 139.324219 C 29.273438 139.496094 38.332031 142.304688 39.902344 142.636719 C 42.175781 143.117188 43.6875 143.238281 46.371094 143.164062 C 50.871094 143.042969 53.53125 142.121094 56.015625 139.839844 L 57.117188 138.832031 L 58.640625 139.289062 C 60.410156 139.816406 62.8125 140.378906 64.546875 140.699219 L 65.753906 140.917969 L 64.910156 141.140625 C 62.683594 141.753906 61.417969 142.332031 54.785156 145.777344 C 49.746094 148.40625 47.929688 149.421875 47.929688 149.605469 C 47.929688 149.851562 54.761719 149.582031 57.773438 149.214844 C 61.136719 148.785156 64.804688 147.679688 67.675781 146.207031 C 69.398438 145.324219 70.699219 144.234375 72.070312 142.550781 L 72.832031 141.605469 L 77.425781 141.605469 L 79.054688 143.214844 C 82.078125 146.207031 82.535156 146.464844 87.65625 148.085938 C 90.878906 149.105469 91.488281 149.203125 98.015625 149.65625 C 102.996094 150 103.171875 149.988281 102.433594 149.335938 C 101.976562 148.933594 99.339844 147.535156 98.167969 147.066406 C 97.089844 146.648438 96.363281 146.257812 94.980469 145.347656 C 92.414062 143.667969 88.734375 142.074219 85.347656 141.175781 C 84.878906 141.054688 84.503906 140.933594 84.527344 140.917969 C 84.539062 140.90625 85.605469 140.675781 86.894531 140.390625 C 89.226562 139.902344 91.839844 139.1875 93.515625 138.613281 C 94.113281 138.402344 94.3125 138.367188 94.136719 138.503906 C 93.984375 138.601562 93.867188 138.820312 93.867188 138.96875 C 93.867188 139.71875 96.738281 141.59375 99.246094 142.464844 C 100.886719 143.042969 102.339844 143.226562 105.351562 143.238281 C 107.554688 143.238281 108.210938 143.203125 109.335938 142.980469 C 111.597656 142.539062 118.828125 140.316406 120.035156 139.679688 C 120.457031 139.460938 120.433594 139.203125 119.976562 139.042969 C 119.390625 138.859375 115.183594 137.988281 112.558594 137.507812 C 107.34375 136.5625 104.472656 136.257812 102.574219 136.453125 C 100.570312 136.660156 98.191406 137.101562 96.972656 137.496094 C 95.871094 137.839844 96.152344 137.667969 97.851562 136.957031 C 98.789062 136.5625 100.582031 135.714844 101.835938 135.066406 C 109.769531 130.980469 116.671875 125.273438 122.660156 117.851562 C 123.140625 117.261719 123.152344 117.25 123.128906 117.617188 C 123.09375 118.109375 123.527344 118.304688 124.816406 118.390625 C 127.464844 118.550781 131.402344 117.394531 133.710938 115.777344 C 137.777344 112.941406 139.652344 111.089844 141.808594 107.777344 C 142.816406 106.242188 144.175781 104.621094 145.289062 103.640625 C 145.699219 103.285156 145.734375 103.039062 145.359375 102.976562 C 145.230469 102.964844 144.316406 103.1875 143.320312 103.492188 C 142.324219 103.800781 140.753906 104.242188 139.851562 104.476562 C 137.835938 105.003906 136.699219 105.445312 134.800781 106.390625 C 132.046875 107.761719 129.480469 109.507812 127.699219 111.1875 C 126.785156 112.058594 126.761719 112.070312 127.101562 111.542969 C 128.648438 109.175781 131.261719 104.179688 132.246094 101.726562 C 132.421875 101.285156 132.585938 100.902344 132.609375 100.878906 C 132.632812 100.855469 132.761719 100.929688 132.890625 101.050781 C 133.089844 101.246094 133.195312 101.261719 133.757812 101.136719 C 135.445312 100.78125 138.480469 99.296875 140.097656 98.042969 C 141.339844 97.074219 142.828125 95.515625 143.53125 94.4375 C 144.621094 92.78125 147.949219 86.128906 149.402344 82.695312 C 149.988281 81.308594 150.105469 80.867188 149.894531 80.867188 C 149.648438 80.867188 144.457031 84.300781 141.550781 86.398438 C 138.84375 88.339844 137.273438 89.882812 135.996094 91.847656 C 135.691406 92.3125 135.433594 92.71875 135.421875 92.730469 C 135.398438 92.757812 135.574219 92.09375 135.785156 91.257812 C 136.453125 88.71875 137.203125 84.914062 137.519531 82.449219 C 137.578125 81.921875 137.601562 81.894531 137.90625 81.945312 C 138.128906 81.96875 138.527344 81.824219 139.136719 81.503906 C 142.160156 79.859375 144.070312 77.824219 145.582031 74.667969 C 146.765625 72.175781 147.351562 70.054688 148.171875 65.28125 C 148.476562 63.5625 148.851562 61.648438 149.015625 61.023438 C 149.484375 59.269531 149.332031 59.058594 148.289062 59.980469 C 147.28125 60.863281 143.671875 64.753906 142.277344 66.445312 C 140.425781 68.703125 139.3125 70.605469 138.503906 72.878906 L 138.175781 73.808594 L 138.164062 72.152344 C 138.164062 69.476562 137.753906 63.734375 137.496094 62.582031 L 137.425781 62.273438 L 137.707031 62.546875 C 137.964844 62.789062 138.023438 62.789062 138.433594 62.644531 C 139.019531 62.433594 140.015625 61.613281 140.859375 60.65625 C 143.0625 58.140625 144.035156 53.441406 143.695312 46.972656 C 143.554688 44.1875 143.214844 39.5625 143.132812 39.277344 C 143.027344 38.910156 139.03125 45.941406 137.8125 48.617188 C 136.78125 50.925781 136.652344 51.597656 136.628906 54.851562 L 136.617188 57.121094 L 136.335938 55.957031 C 135.761719 53.585938 135.316406 51.941406 134.800781 50.261719 C 134.226562 48.382812 132.714844 44.285156 132.175781 43.167969 C 131.601562 41.980469 131.800781 42.199219 132.539062 43.585938 C 133.324219 45.046875 133.570312 45.28125 134.003906 44.984375 C 135.070312 44.25 136.757812 39.867188 136.957031 37.339844 C 136.992188 36.851562 136.957031 36.027344 136.886719 35.5 C 136.558594 33.316406 135.46875 29.070312 134.273438 25.363281 C 133.523438 23.019531 133.394531 22.703125 133.171875 22.703125 C 132.808594 22.703125 131.15625 26.875 130.710938 28.960938 C 130.300781 30.824219 130.300781 38.445312 130.710938 39.597656 C 130.804688 39.894531 130.863281 40.125 130.839844 40.125 C 130.816406 40.125 130.5 39.535156 130.136719 38.8125 C 127.957031 34.554688 125.214844 30.347656 122.027344 26.394531 C 120.609375 24.628906 116.941406 20.761719 115.382812 19.375 C 114.480469 18.578125 114.269531 18.332031 114.445312 18.296875 C 114.808594 18.234375 114.925781 18.0625 115.066406 17.460938 C 115.242188 16.75 115.253906 14.371094 115.078125 13.558594 C 114.84375 12.417969 114.339844 11.410156 113.15625 9.753906 C 112.195312 8.40625 109.628906 5.753906 108.28125 4.710938 C 107.003906 3.71875 104.332031 1.964844 104.097656 1.964844 C 103.863281 1.964844 103.910156 2.6875 104.25 4.085938 C 104.613281 5.632812 105.386719 8.34375 105.667969 9.082031 C 106.160156 10.367188 107.144531 11.941406 108.515625 13.644531 L 109.042969 14.296875 L 108.632812 14.011719 C 107.683594 13.363281 106.910156 12.910156 104.53125 11.546875 L 102.011719 10.109375 L 101.929688 9.375 C 101.660156 6.796875 99.597656 4.269531 96.550781 2.773438 C 95.507812 2.257812 89.296875 0.222656 88.242188 0.0507812 C 87.84375 -0.0234375 87.773438 0 87.773438 0.183594 C 87.773438 0.75 90.996094 5.09375 92.871094 7.066406 C 94.664062 8.957031 96.503906 10.023438 98.976562 10.613281 L 100.183594 10.898438 L 102.855469 12.824219 C 104.542969 14.039062 105.398438 14.726562 105.175781 14.675781 C 103.441406 14.308594 101.496094 14.269531 99.703125 14.589844 C 96.65625 15.140625 91.78125 16.75 91.289062 17.363281 C 90.984375 17.742188 91.804688 17.941406 95.402344 18.34375 C 96.914062 18.503906 98.777344 18.738281 99.550781 18.847656 C 102.597656 19.265625 108.890625 19.191406 110.214844 18.699219 C 110.777344 18.503906 110.730469 18.46875 112.945312 20.417969 C 114.902344 22.125 115.535156 22.738281 115.253906 22.640625 C 112.710938 21.695312 108.9375 21.253906 105.28125 21.472656 C 103.277344 21.585938 102.65625 21.730469 102.65625 22.085938 C 102.65625 22.359375 102.925781 22.542969 104.121094 23.070312 C 104.636719 23.289062 106.511719 24.1875 108.28125 25.046875 C 113.929688 27.769531 115.945312 28.40625 119.730469 28.664062 L 120.949219 28.75 L 121.394531 29.316406 C 122.578125 30.824219 125.15625 34.480469 125.15625 34.664062 C 125.15625 34.703125 124.910156 34.542969 124.605469 34.308594 C 123.714844 33.648438 121.6875 32.566406 120.222656 31.992188 C 116.554688 30.53125 112.382812 29.535156 112.382812 30.113281 C 112.382812 30.210938 112.921875 30.789062 113.589844 31.390625 C 115.464844 33.09375 120.9375 37.820312 121.957031 38.605469 C 124.277344 40.410156 127.59375 42.410156 128.894531 42.777344 L 129.644531 42.996094 L 130.054688 43.929688 C 131.039062 46.199219 132.691406 50.777344 132.386719 50.433594 C 130.195312 47.929688 129.011719 46.777344 127.699219 45.855469 C 125.214844 44.113281 120.445312 41.585938 120.164062 41.867188 C 120.046875 42.003906 120.445312 42.640625 121.359375 43.746094 C 123.09375 45.855469 124.558594 48.066406 125.953125 50.679688 C 126.375 51.453125 127.054688 52.554688 127.476562 53.121094 C 129.070312 55.269531 132.199219 58.25 134.003906 59.355469 C 134.425781 59.613281 134.789062 59.90625 134.824219 60.003906 C 134.941406 60.410156 135.480469 64.617188 135.644531 66.507812 C 135.808594 68.363281 135.867188 70.347656 135.738281 69.761719 C 135.339844 67.859375 134.132812 65.085938 133.136719 63.773438 C 132.199219 62.546875 125.671875 55.625 125.554688 55.734375 C 125.367188 55.941406 128.074219 64.949219 129.257812 68.042969 C 130.710938 71.847656 132.75 75.332031 134.941406 77.785156 L 135.667969 78.59375 L 135.574219 79.578125 C 135.304688 82.339844 134.460938 87.726562 134.273438 87.933594 C 134.25 87.957031 134.167969 87.40625 134.085938 86.71875 C 133.792969 83.96875 133.089844 82.054688 130.851562 77.992188 C 128.777344 74.203125 127.359375 71.980469 127.101562 72.066406 C 126.890625 72.140625 126.890625 73.246094 127.089844 76.753906 C 127.382812 82.019531 127.722656 86.339844 127.980469 88.167969 C 128.320312 90.511719 129.84375 94.351562 131.167969 96.179688 L 131.71875 96.964844 L 131.0625 98.632812 C 130.054688 101.199219 127.054688 107.46875 127.429688 106.242188 C 127.464844 106.117188 127.558594 105.40625 127.628906 104.660156 C 127.828125 102.695312 127.699219 98.976562 127.382812 97.1875 C 126.445312 91.847656 125.179688 88.15625 124.535156 88.828125 C 124.464844 88.902344 124.347656 89.589844 124.265625 90.375 C 124.113281 91.738281 123.878906 92.929688 122.648438 98.574219 C 121.816406 102.402344 121.617188 103.761719 121.558594 106.058594 C 121.488281 108.535156 121.652344 109.738281 122.425781 112.070312 L 122.929688 113.652344 L 122.320312 114.464844 C 121.101562 116.09375 118.078125 119.765625 117.949219 119.765625 C 117.925781 119.765625 117.960938 119.582031 118.019531 119.359375 C 118.839844 116.378906 119.132812 111.46875 118.769531 106.632812 C 118.664062 105.113281 118.546875 103.859375 118.535156 103.835938 C 118.511719 103.8125 118.171875 104.476562 117.773438 105.308594 C 116.507812 107.898438 114.515625 111.652344 113.71875 112.929688 C 111.457031 116.550781 110.882812 118.5625 110.601562 123.984375 L 110.460938 126.757812 L 108.820312 127.960938 C 106.746094 129.484375 103.945312 131.335938 103.851562 131.238281 C 103.828125 131.214844 103.992188 130.929688 104.214844 130.601562 C 105.527344 128.671875 106.921875 125.324219 107.636719 122.339844 C 107.953125 121.054688 108.550781 117.371094 108.492188 117.164062 C 108.433594 116.992188 102.175781 123.335938 100.464844 125.296875 C 96.773438 129.554688 95.683594 131.484375 95.226562 134.601562 L 95.085938 135.519531 L 93.339844 136.121094 C 92.367188 136.453125 90.796875 136.945312 89.824219 137.203125 L 88.066406 137.667969 L 88.59375 137.226562 C 90.5625 135.558594 93.234375 132.058594 94.453125 129.53125 C 94.839844 128.734375 95.378906 127.042969 95.390625 126.613281 C 95.390625 126.5625 94.769531 126.832031 94.019531 127.210938 C 92.074219 128.171875 91.183594 128.5625 88.769531 129.519531 C 85.019531 130.992188 83.648438 131.875 81.84375 134.011719 C 80.203125 135.949219 79.160156 137.789062 79.253906 138.550781 L 79.3125 138.992188 L 78.597656 139.078125 C 78.210938 139.117188 76.476562 139.152344 74.753906 139.152344 C 72.375 139.152344 71.589844 139.117188 71.519531 138.992188 C 71.472656 138.917969 71.191406 138.257812 70.886719 137.53125 C 70.59375 136.808594 70.160156 135.902344 69.949219 135.519531 C 68.449219 132.929688 66.175781 131.285156 61.640625 129.519531 C 59.144531 128.539062 57.574219 127.839844 56.167969 127.042969 C 55.5 126.671875 54.960938 126.425781 54.960938 126.488281 C 54.960938 126.808594 55.5 128.378906 55.863281 129.152344 C 57.105469 131.730469 60.1875 135.730469 62.132812 137.289062 C 62.449219 137.53125 62.660156 137.753906 62.601562 137.777344 C 62.367188 137.851562 57.398438 136.441406 55.722656 135.800781 L 55.253906 135.628906 L 55.171875 134.734375 C 54.878906 131.789062 53.824219 129.800781 50.589844 126.144531 C 49.78125 125.238281 47.507812 122.769531 45.539062 120.683594 L 41.941406 116.878906 L 42.011719 117.433594 C 42.492188 121.175781 43.582031 125.359375 44.777344 127.984375 C 45.398438 129.335938 45.808594 130.070312 46.558594 131.164062 L 47.015625 131.816406 L 46.453125 131.472656 C 44.214844 130.132812 40.078125 127.296875 39.902344 127.003906 C 39.867188 126.957031 39.9375 126.453125 40.042969 125.886719 C 40.664062 122.441406 39.105469 116.734375 36.210938 111.921875 C 35.378906 110.550781 33.609375 107.1875 32.625 105.125 C 32.34375 104.535156 32.0625 104.058594 32.003906 104.058594 C 31.769531 104.058594 31.664062 113.285156 31.875 115.996094 C 32.015625 117.800781 32.308594 119.078125 32.8125 120.15625 L 33.175781 120.929688 L 32.566406 120.316406 C 31.675781 119.410156 29.34375 116.660156 28.253906 115.238281 L 27.316406 113.996094 L 27.539062 113.59375 C 28.160156 112.5625 28.792969 109.457031 28.910156 106.929688 C 29.015625 104.597656 28.6875 102.351562 27.292969 95.898438 C 26.414062 91.886719 26.015625 89.710938 26.015625 88.976562 C 26.015625 88.4375 25.851562 88.105469 25.664062 88.300781 C 25.59375 88.375 25.324219 88.941406 25.078125 89.554688 C 23.871094 92.5 22.382812 100.132812 22.535156 102.644531 C 22.605469 103.652344 23.097656 107.015625 23.273438 107.566406 C 23.308594 107.703125 23.0625 107.332031 22.734375 106.757812 C 21.890625 105.296875 19.710938 100.644531 18.9375 98.660156 L 18.304688 97.015625 L 18.703125 96.695312 C 20.003906 95.675781 21.890625 91.664062 22.324219 88.988281 C 22.851562 85.75 23.730469 72.777344 23.4375 72.472656 C 23.121094 72.140625 21.445312 74.59375 19.441406 78.351562 C 17.167969 82.621094 16.464844 84.902344 16.300781 88.535156 L 16.230469 90.253906 L 15.960938 89.085938 C 15.351562 86.472656 14.777344 83.0625 14.53125 80.621094 C 14.460938 79.910156 14.378906 79.171875 14.355469 78.976562 C 14.308594 78.667969 14.320312 78.644531 14.472656 78.78125 C 14.730469 79 14.988281 78.71875 16.582031 76.507812 C 18.304688 74.105469 19.804688 71.761719 20.273438 70.730469 C 20.625 69.945312 21.867188 66.445312 22.125 65.527344 C 22.183594 65.292969 22.464844 64.386719 22.722656 63.515625 C 23.425781 61.21875 24.574219 57.207031 24.703125 56.59375 C 24.773438 56.3125 24.773438 56.078125 24.726562 56.078125 C 24.433594 56.078125 19.242188 61.402344 18.023438 62.949219 C 16.242188 65.207031 15.011719 67.933594 14.355469 71.085938 C 14.238281 71.613281 14.132812 72.019531 14.109375 71.992188 C 14.027344 71.921875 14.296875 67 14.460938 65.34375 C 14.554688 64.460938 14.742188 62.902344 14.894531 61.871094 C 15.105469 60.359375 15.1875 60.003906 15.339844 60.003906 C 15.621094 60.003906 16.382812 59.515625 17.601562 58.570312 C 20.402344 56.386719 22.464844 53.882812 26.074219 48.285156 C 27.023438 46.800781 28.40625 44.753906 29.144531 43.734375 C 29.871094 42.714844 30.46875 41.792969 30.46875 41.683594 C 30.46875 41.414062 30.09375 41.550781 28.628906 42.324219 C 25.921875 43.746094 21.925781 46.347656 20.566406 47.5625 C 19.710938 48.335938 18.433594 49.855469 17.601562 51.097656 C 17.332031 51.5 17.109375 51.796875 17.109375 51.757812 C 17.109375 51.367188 18.878906 46.445312 19.757812 44.347656 L 20.285156 43.121094 L 20.964844 42.972656 C 22.207031 42.703125 25.042969 41.121094 27.773438 39.179688 C 29.695312 37.808594 30.902344 36.824219 32.753906 35.09375 C 33.597656 34.308594 34.96875 33.09375 35.800781 32.371094 C 37.628906 30.8125 37.992188 30.445312 37.945312 30.199219 C 37.886719 29.890625 36.75 29.976562 34.980469 30.417969 C 31.195312 31.363281 28.089844 32.777344 25.5 34.714844 C 24.996094 35.09375 24.46875 35.488281 24.339844 35.585938 C 23.835938 35.964844 27.515625 30.53125 28.757812 29.082031 C 29.0625 28.726562 29.085938 28.714844 30.1875 28.714844 C 33.234375 28.714844 36.65625 27.769531 40.488281 25.867188 C 41.589844 25.328125 43.347656 24.46875 44.414062 23.976562 C 47.226562 22.664062 47.636719 22.445312 47.671875 22.136719 C 47.695312 21.929688 47.613281 21.84375 47.320312 21.71875 C 46.277344 21.339844 40.746094 21.363281 38.320312 21.769531 C 37.207031 21.953125 35.53125 22.417969 34.710938 22.761719 L 34.277344 22.945312 L 34.863281 22.394531 C 35.742188 21.558594 37.933594 19.632812 38.742188 18.996094 L 39.445312 18.429688 L 40.382812 18.714844 C 42.679688 19.398438 46.042969 19.425781 51.035156 18.773438 C 54.9375 18.269531 57.070312 18.039062 57.878906 18.027344 C 58.617188 18.027344 59.308594 17.816406 59.390625 17.570312 C 59.496094 17.203125 55.535156 15.632812 53.015625 15.042969 C 52.3125 14.871094 51.222656 14.675781 50.589844 14.589844 C 49.136719 14.40625 45.691406 14.515625 44.707031 14.773438 C 44.320312 14.871094 43.992188 14.933594 43.980469 14.921875 C 43.96875 14.910156 44.414062 14.527344 44.976562 14.085938 C 45.539062 13.644531 46.699219 12.726562 47.554688 12.039062 C 48.421875 11.363281 49.171875 10.835938 49.230469 10.871094 C 49.476562 11.019531 51.832031 10.652344 52.722656 10.320312 C 54.65625 9.609375 56.753906 8 58.863281 5.621094 C 61.628906 2.492188 62.953125 0.453125 62.449219 0.109375 C 62.25 -0.0234375 62.273438 -0.0234375 61.699219 0.195312 Z M 61.699219 0.195312 "/>
<path style=" stroke:none;fill-rule:nonzero;fill:rgb(0%,0%,0%);fill-opacity:1;" d="M 119.238281 10.554688 C 119.261719 11.460938 119.320312 13.425781 119.355469 14.910156 C 119.4375 18.199219 119.601562 20.113281 119.894531 21.339844 C 120.199219 22.589844 121.347656 24.984375 122.273438 26.261719 C 123.328125 27.730469 125.71875 30.0625 126.164062 30.0625 C 127.066406 30.0625 127.640625 24.445312 127.019531 21.535156 C 126.539062 19.214844 125.402344 16.921875 123.421875 14.234375 C 122.671875 13.226562 120.164062 10.050781 119.496094 9.277344 L 119.167969 8.894531 Z M 119.238281 10.554688 "/>
<path style=" stroke:none;fill-rule:nonzero;fill:rgb(0%,0%,0%);fill-opacity:1;" d="M 132.421875 122.917969 C 125.144531 123.457031 122.953125 123.738281 120.339844 124.425781 C 117.175781 125.261719 114.878906 126.425781 112.113281 128.574219 C 110.285156 130 109.792969 130.671875 110.097656 131.3125 C 110.542969 132.195312 114.222656 133.027344 116.894531 132.84375 C 119.976562 132.625 123.5625 131.398438 126.644531 129.507812 C 130.183594 127.335938 135.257812 123.714844 135.433594 123.238281 C 135.46875 123.140625 135.433594 123.003906 135.339844 122.941406 C 135.1875 122.84375 133.59375 122.832031 132.421875 122.917969 Z M 132.421875 122.917969 "/>
</g>
</svg>
